<svg  fill="#c9c9c9" height="128px" width="128px" viewBox="0 0 128 128" preserveAspectRatio="none" xmlns="http://www.w3.org/2000/svg"><path d="M9.85,54.15a1,1,0,0,1-.71,1.71,1,1,0,0,1-.7-.3,1,1,0,0,1,1.41-1.41ZM17.58,45a1,1,0,0,0,0,1.41,1,1,0,0,0,1.41,0A1,1,0,0,0,17.58,45Zm9.85-7.44a1,1,0,0,0,.71-.29,1,1,0,0,0,0-1.42,1,1,0,0,0-1.42,1.42A1,1,0,0,0,27.43,37.57Zm8.43-10.85a1,1,0,0,0,0,1.42,1,1,0,0,0,1.42,0,1,1,0,0,0-1.42-1.42ZM45,17.58A1,1,0,0,0,45,19a1,1,0,0,0,1.41,0A1,1,0,1,0,45,17.58Zm9.14-9.14a1,1,0,0,0,0,1.41,1,1,0,0,0,1.41,0,1,1,0,1,0-1.41-1.41Zm0,109.71a1,1,0,0,0,0,1.41,1,1,0,0,0,1.41,0,1,1,0,1,0-1.41-1.41ZM45,109a1,1,0,0,0,0,1.41,1,1,0,0,0,1.41,0A1,1,0,1,0,45,109Zm-9.15-9.15a1,1,0,0,0,0,1.42,1,1,0,0,0,1.42,0,1,1,0,1,0-1.42-1.42Zm-9.14-9.14a1,1,0,0,0,0,1.42,1,1,0,0,0,.71.29,1,1,0,0,0,.71-.29,1,1,0,0,0-1.42-1.42Zm-9.14-9.14a1,1,0,0,0,0,1.41A1,1,0,0,0,19,83a1,1,0,0,0-1.41-1.41ZM8.44,72.44a1,1,0,0,0,0,1.41,1,1,0,0,0,.7.29,1,1,0,0,0,.71-.29,1,1,0,0,0-1.41-1.41Zm64,45.71a1,1,0,0,0,0,1.41,1,1,0,0,0,1.41,0,1,1,0,0,0-1.41-1.41ZM81.58,109a1,1,0,0,0,0,1.41,1,1,0,0,0,1.41,0A1,1,0,0,0,81.58,109Zm9.14-9.15a1,1,0,0,0,0,1.42,1,1,0,0,0,1.42,0,1,1,0,1,0-1.42-1.42Zm9.14-9.14a1,1,0,0,0,0,1.42,1,1,0,0,0,1.42,0,1,1,0,0,0-1.42-1.42ZM109,81.58A1,1,0,0,0,109,83a1,1,0,0,0,1.41,0A1,1,0,0,0,109,81.58Zm9.14-9.15a1,1,0,0,0,0,1.42,1,1,0,0,0,1.41,0,1,1,0,0,0-1.41-1.42Zm0-18.28a1,1,0,0,0,0,1.41,1,1,0,1,0,1.41-1.41A1,1,0,0,0,118.15,54.15ZM109,45a1,1,0,0,0,0,1.41,1,1,0,0,0,1.41,0A1,1,0,0,0,109,45Zm-9.15-9.15a1,1,0,0,0,0,1.42,1,1,0,0,0,1.42,0,1,1,0,0,0-1.42-1.42Zm-8.43-7.43a1,1,0,0,0,.7-.3,1,1,0,1,0-.7.3ZM81.58,17.58a1,1,0,0,0,0,1.41A1,1,0,0,0,83,19a1,1,0,1,0-1.41-1.41ZM72.44,8.44a1,1,0,0,0,.7,1.7,1,1,0,0,0,.71-.29,1,1,0,0,0,0-1.41A1,1,0,0,0,72.44,8.44ZM64,3a3.15,3.15,0,0,0,2.13-.87A3.13,3.13,0,0,0,67,0H61a3.13,3.13,0,0,0,.87,2.12A3.15,3.15,0,0,0,64,3ZM3,64a3.15,3.15,0,0,0-.87-2.13A3.07,3.07,0,0,0,0,61v6a3.15,3.15,0,0,0,2.13-.87A3.15,3.15,0,0,0,3,64Zm63.13,61.87A3,3,0,0,0,61,128h6A3.15,3.15,0,0,0,66.13,125.86Zm59.11-63A3,3,0,0,0,125,64a3,3,0,0,0,3,3V61a2.86,2.86,0,0,0-2.76,1.85Z"/></svg>